<?xml version="1.0" standalone="no"?>
<!DOCTYPE svg PUBLIC "-//W3C//DTD SVG 20010904//EN"
 "http://www.w3.org/TR/2001/REC-SVG-20010904/DTD/svg10.dtd">
<svg version="1.0" xmlns="http://www.w3.org/2000/svg"
 width="417.000000pt" height="417.000000pt" viewBox="0 0 417.000000 417.000000"
 preserveAspectRatio="xMidYMid meet">
<metadata>
Created by potrace 1.14, written by Peter Selinger 2001-2017
</metadata>
<g transform="translate(0.000000,417.000000) scale(0.100000,-0.100000)"
fill="#000000" stroke="none">
<path d="M2027 4134 c-1 -1 -38 -5 -83 -8 -278 -19 -524 -86 -769 -208 -466
-231 -826 -631 -1009 -1119 -35 -97 -82 -263 -92 -329 -3 -19 -7 -42 -9 -50
-2 -8 -7 -42 -10 -75 -3 -33 -8 -78 -10 -100 -7 -65 -7 -234 0 -320 27 -339
135 -659 318 -945 34 -52 72 -109 86 -126 15 -17 42 -51 61 -75 86 -110 281
-287 415 -380 217 -148 499 -270 735 -315 14 -3 43 -9 65 -14 148 -32 522 -35
688 -5 15 3 37 7 50 9 748 135 1388 718 1591 1453 24 88 43 172 51 228 3 17 9
57 14 90 10 64 8 459 -3 510 -7 33 -16 83 -23 130 -3 17 -16 72 -29 123 -77
291 -215 557 -413 797 -68 82 -247 250 -339 318 -269 200 -589 337 -892 382
-20 3 -45 7 -57 9 -48 10 -330 26 -336 20z"/>
</g>
</svg>
