<?xml version="1.0" encoding="utf-8"?>
<!-- Generator: Adobe Illustrator 16.0.0, SVG Export Plug-In . SVG Version: 6.00 Build 0)  -->
<!DOCTYPE svg PUBLIC "-//W3C//DTD SVG 1.1//EN" "http://www.w3.org/Graphics/SVG/1.1/DTD/svg11.dtd">
<svg version="1.1" id="Layer_1" xmlns="http://www.w3.org/2000/svg" xmlns:xlink="http://www.w3.org/1999/xlink" x="0px" y="0px"
	 width="16px" height="16px" viewBox="0 0 16 16" enable-background="new 0 0 16 16" xml:space="preserve">
<g>
	<g>
		<path fill="#666666" d="M12.122,8.184c-0.928,0-1.684-0.756-1.684-1.685s0.755-1.685,1.684-1.685c0.929,0,1.685,0.756,1.685,1.685
			S13.05,8.184,12.122,8.184z M12.122,5.624c-0.482,0-0.875,0.393-0.875,0.875c0,0.483,0.392,0.875,0.875,0.875
			c0.483,0,0.876-0.392,0.876-0.875C12.998,6.017,12.604,5.624,12.122,5.624z"/>
	</g>
	<g>
		<path fill-rule="evenodd" clip-rule="evenodd" fill="#666666" d="M5.428,2.924c1.431-0.439,2.865-0.87,4.292-1.321
			c0.86-0.272,1.629-0.16,2.354,0.396c1.042,0.8,2.108,1.568,3.163,2.351c0.722,0.536,0.929,1.202,0.633,2.047
			c-0.444,1.272-0.898,2.542-1.335,3.817c-0.26,0.759-0.764,1.267-1.522,1.501c-2.98,0.923-5.962,1.839-8.946,2.746
			c-0.804,0.245-1.415-0.105-1.665-0.919c-0.773-2.512-1.545-5.024-2.315-7.537C-0.171,5.164,0.152,4.55,1.005,4.285
			C2.478,3.825,3.953,3.376,5.428,2.924z M8.352,12.264c1.464-0.449,2.927-0.9,4.391-1.348c0.455-0.139,0.787-0.413,0.946-0.867
			c0.468-1.324,0.934-2.649,1.395-3.977c0.142-0.411,0.041-0.731-0.307-0.993c-1.094-0.824-2.191-1.645-3.287-2.466
			c-0.423-0.317-0.883-0.395-1.392-0.237c-2.926,0.902-5.854,1.798-8.78,2.698C0.834,5.223,0.779,5.331,0.931,5.827
			c0.753,2.457,1.508,4.915,2.264,7.372c0.158,0.516,0.257,0.568,0.767,0.413C5.425,13.163,6.889,12.713,8.352,12.264z"/>
	</g>
</g>
</svg>
